<?xml version="1.0" encoding="UTF-8" standalone="no"?>
<!DOCTYPE svg PUBLIC "-//W3C//DTD SVG 1.1//EN" "http://www.w3.org/Graphics/SVG/1.1/DTD/svg11.dtd">
<svg width="100%" height="100%" viewBox="0 0 1080 360" version="1.1" xmlns="http://www.w3.org/2000/svg" xmlns:xlink="http://www.w3.org/1999/xlink" xml:space="preserve" xmlns:serif="http://www.serif.com/" style="fill-rule:evenodd;clip-rule:evenodd;">
    <g transform="matrix(1,0,0,1,0,-796)">
        <g transform="matrix(1,0,0,1,0,793.975)">
            <rect x="0" y="0" width="1080" height="365" style="fill:rgb(55,66,183);"/>
        </g>
        <g transform="matrix(1,0,0,1,0,2.97471)">
            <path d="M559.828,897.978C603.657,874.524 649.125,857.076 695.365,845.961L695.013,842.76C640.199,841.831 599.939,833.424 572.891,820.147C545.874,806.882 532.203,788.863 530.069,768.661C527.311,742.532 546.377,692.236 612.886,674.088L618.107,672.664L612.963,670.98C572.99,657.892 547.872,637.568 532.816,615.071C517.75,592.559 512.678,567.747 513.016,545.567C513.578,508.958 533.709,480.185 559.835,458.993C585.969,437.793 617.949,424.316 641.755,418.339C719.039,398.949 798.326,394.659 876.497,404.844C932.902,412.196 983.765,425.285 1022.23,449.573C1060.62,473.81 1086.7,509.224 1093.61,561.462L1093.67,561.864L1093.68,561.876C1106.3,658.854 1038.05,732.317 956.953,749.324L952.487,750.262L956.541,752.356C977.936,763.402 1000.45,785.363 1015.61,812.109C1030.75,838.848 1038.43,870.152 1030.49,899.906C1021.86,932.213 995.581,952.784 960.748,965.299C925.912,977.816 882.805,982.163 841.132,982.163C768.02,982.163 728.772,961.763 710.025,940.309C700.642,929.571 696.372,918.553 695.511,909.609C694.636,900.53 697.269,894.021 701.047,891.596L705.839,888.519L700.147,888.606C653.312,889.317 606.501,892.45 559.828,897.978Z" style="fill:none;fill-rule:nonzero;stroke:rgb(241,58,236);stroke-width:1.13px;"/>
        </g>
        <g transform="matrix(1,0,0,1,0,2.97471)">
            <path d="M438.289,1351.47L575.117,1041.37L601.026,1117.58L602.117,1120.78L603.982,1117.96L682.493,998.978L731.891,1069.69L733.028,1071.32L734.428,1069.91L901.671,901.575L856.781,1122.89L855.961,1126.93L859.351,1124.58L980.037,1041.04L936.78,1170.84L935.799,1173.78L938.789,1172.97L1160.25,1112.8L986.265,1383.2L985.124,1384.97L987.112,1385.67L1054.91,1409.34L937.408,1503.74L438.289,1351.47Z" style="fill:none;fill-rule:nonzero;stroke:rgb(114,244,74);stroke-width:1.13px;"/>
        </g>
        <g transform="matrix(1,0,0,1,0,2.97471)">
            <path d="M373.845,1271.81C365.228,1293.61 372.739,1319.98 391.093,1335.14C373.842,1331.72 359.098,1321.7 347.298,1308.83C334.232,1294.58 324.852,1276.91 319.774,1261.12L318.508,1257.19L317.095,1261.07C307.997,1286.05 286.2,1306.63 259.752,1315.13C233.367,1323.62 206.799,1318.45 183.453,1303.81C176.859,1299.67 171.108,1295.61 165.834,1291.83C165.179,1291.36 164.532,1290.9 163.891,1290.44C159.376,1287.2 155.174,1284.18 151.085,1281.57C141.715,1275.58 132.78,1271.59 121.51,1271.59C110.644,1271.59 102.176,1276.89 93.052,1282.61C91.861,1283.36 90.66,1284.11 89.44,1284.86C78.798,1291.4 66.402,1297.97 47.306,1298.44C20.368,1299.1 -7.763,1288.32 -30.344,1270.58C-52.925,1252.83 -69.826,1228.22 -74.468,1201.37C-79.468,1172.41 -80.375,1129.97 -47.505,1087.16C-42.061,1080.07 -35.701,1073.64 -29.282,1067.14C-27.581,1065.42 -25.876,1063.69 -24.182,1061.95C-16.142,1053.68 -8.414,1045.05 -3.054,1034.83C6.975,1015.71 5.457,991.611 -6.895,973.771C-11.893,966.55 -18.34,960.533 -24.919,954.773C-26.156,953.691 -27.396,952.618 -28.633,951.548C-34.014,946.894 -39.33,942.296 -44.023,937.165C-49.729,930.92 -54.285,923.134 -56.278,915.211C-58.267,907.301 -57.689,899.339 -53.281,892.558C-48.181,884.713 -36.817,880.62 -23.235,880.074C-9.744,879.532 5.473,882.522 17.685,888.314L19.058,888.965L19.61,887.545C26.994,868.54 38.38,851.631 55.566,840.045C72.741,828.466 95.843,822.112 126.834,824.452C156.407,826.685 188.845,859.314 184.156,905.653L186.801,906.489C196.307,889.426 208.452,875.868 226.46,866.521C244.496,857.16 268.531,851.962 301.92,851.85C366.378,851.643 406.794,894.403 417.439,917.492L417.82,918.316L417.834,918.316C434.542,955.54 423.151,999.103 404.97,1036.39C403.098,1040.22 401.184,1043.93 399.312,1047.54C396.06,1053.83 392.945,1059.85 390.439,1065.86C386.451,1075.43 383.89,1085.21 384.493,1096.61M373.845,1271.81C375.8,1266.87 379.239,1262.22 383.358,1257.79C387.486,1253.34 392.365,1249.05 397.264,1244.83C397.975,1244.22 398.683,1243.61 399.391,1243C403.593,1239.4 407.744,1235.84 411.45,1232.23C415.78,1228.03 419.43,1223.83 421.803,1219.56C430.971,1203.03 432.84,1182.98 426.878,1165.19C425.12,1159.94 421.743,1154.52 417.555,1148.93C414.395,1144.71 410.83,1140.47 407.215,1136.16C406.037,1134.76 404.856,1133.35 403.681,1131.94C398.922,1126.2 394.296,1120.37 390.783,1114.51C387.275,1108.65 384.812,1102.66 384.493,1096.61M373.845,1271.81L375.16,1272.34M384.493,1096.61L385.907,1096.53" style="fill:none;fill-rule:nonzero;stroke:rgb(7,246,255);stroke-width:1.13px;"/>
        </g>
    </g>
</svg>
