<?xml version="1.0" encoding="UTF-8" standalone="no"?>
<!DOCTYPE svg PUBLIC "-//W3C//DTD SVG 1.1//EN" "http://www.w3.org/Graphics/SVG/1.1/DTD/svg11.dtd">
<svg width="100%" height="100%" viewBox="0 0 1080 1156" version="1.1" xmlns="http://www.w3.org/2000/svg" xmlns:xlink="http://www.w3.org/1999/xlink" xml:space="preserve" xmlns:serif="http://www.serif.com/" style="fill-rule:evenodd;clip-rule:evenodd;">
    <g transform="matrix(1.06464,0,0,1.06464,-97.7472,17.4285)">
        <path d="M559.828,897.978C603.657,874.524 649.125,857.076 695.365,845.961L695.013,842.76C640.199,841.831 599.939,833.424 572.891,820.147C545.874,806.882 532.203,788.863 530.069,768.661C527.311,742.532 546.377,692.236 612.886,674.088L618.107,672.664L612.963,670.98C572.99,657.892 547.872,637.568 532.816,615.071C517.75,592.559 512.678,567.747 513.016,545.567C513.578,508.958 533.709,480.185 559.835,458.993C585.969,437.793 617.949,424.316 641.755,418.339C719.039,398.949 798.326,394.659 876.497,404.844C932.902,412.196 983.765,425.285 1022.23,449.573C1060.62,473.81 1086.7,509.224 1093.61,561.462L1093.67,561.864L1093.68,561.876C1106.3,658.854 1038.05,732.317 956.953,749.324L952.487,750.262L956.541,752.356C977.936,763.402 1000.45,785.363 1015.61,812.109C1030.75,838.848 1038.43,870.152 1030.49,899.906C1021.86,932.213 995.581,952.784 960.748,965.299C925.912,977.816 882.805,982.163 841.132,982.163C768.02,982.163 728.772,961.763 710.025,940.309C700.642,929.571 696.372,918.553 695.511,909.609C694.636,900.53 697.269,894.021 701.047,891.596L705.839,888.519L700.147,888.606C653.312,889.317 606.501,892.45 559.828,897.978Z" style="fill:none;fill-rule:nonzero;stroke:rgb(241,58,236);stroke-width:1.13px;"/>
    </g>
    <g>
        <g transform="matrix(1,0,0,1.49648,0,0)">
            <rect x="0" y="0" width="1080" height="791" style="fill:white;"/>
        </g>
        <g transform="matrix(1.06464,0,0,1.06464,-98.1566,140.291)">
            <path d="M574.468,824.342C637.756,790.522 703.411,765.361 770.179,749.333L769.672,744.718C690.521,743.379 632.387,731.255 593.331,712.11C554.318,692.983 534.578,666.999 531.496,637.869C527.515,600.191 555.045,527.663 651.082,501.495L658.621,499.441L651.194,497.012C593.474,478.14 557.204,448.832 535.464,416.392C513.709,383.93 506.384,348.152 506.872,316.169C507.684,263.378 536.753,221.888 574.478,191.329C612.215,160.759 658.393,141.326 692.768,132.707C804.364,104.746 918.853,98.56 1031.73,113.247C1113.18,123.848 1186.62,142.722 1242.16,177.745C1297.59,212.696 1335.26,263.761 1345.24,339.088L1345.32,339.668L1345.33,339.685C1363.55,479.527 1265.01,585.46 1147.91,609.984L1141.46,611.336L1147.31,614.356C1178.2,630.285 1210.72,661.952 1232.6,700.52C1254.47,739.077 1265.55,784.217 1254.08,827.123C1241.63,873.709 1203.68,903.372 1153.39,921.418C1103.08,939.468 1040.84,945.736 980.663,945.736C875.092,945.736 818.418,916.32 791.348,885.383C777.799,869.898 771.634,854.011 770.39,841.115C769.127,828.022 772.928,818.636 778.385,815.139L785.304,810.702L777.085,810.828C709.456,811.853 641.862,816.371 574.468,824.342Z" style="fill:none;fill-rule:nonzero;stroke:rgb(0,246,19);stroke-width:1.13px;"/>
        </g>
        <g transform="matrix(1.06464,0,0,1.06464,-293.096,69.146)">
            <path d="M1512.25,0.25L1293.83,347.297L1276.16,251.555L1275.42,247.526L1272.69,250.581L1157.71,379.164L1110.94,285.872L1109.86,283.724L1107.94,285.164L877.971,457.217L970.629,200.273L972.322,195.578L967.847,197.791L808.558,276.561L883.188,128.837L884.88,125.49L881.155,125.936L605.22,159.029L861.186,-133.976L862.866,-135.898L860.604,-137.078L783.52,-177.315L940.9,-269.637L1512.25,0.25Z" style="fill:none;fill-rule:nonzero;stroke:rgb(7,246,255);stroke-width:1.13px;"/>
        </g>
        <g transform="matrix(1.06464,0,0,1.06464,-143.055,64.2609)">
            <path d="M629.109,762.082C616.058,795.063 627.433,834.963 655.232,857.904C629.104,852.725 606.773,837.566 588.901,818.091C569.111,796.531 554.906,769.8 547.215,745.9L545.298,739.953L543.156,745.823C529.377,783.621 496.365,814.759 456.308,827.621C416.345,840.467 376.107,832.65 340.748,810.49C330.761,804.227 322.051,798.085 314.063,792.37C313.072,791.662 312.091,790.958 311.12,790.259C304.282,785.36 297.918,780.798 291.725,776.84C277.533,767.776 264.001,761.741 246.932,761.741C230.475,761.741 217.649,769.77 203.83,778.424C202.027,779.55 200.207,780.694 198.36,781.825C182.242,791.718 163.467,801.659 134.544,802.371C93.746,803.368 51.14,787.061 16.94,760.213C-17.261,733.362 -42.858,696.125 -49.888,655.482C-57.462,611.667 -58.836,547.445 -9.051,482.672C-0.807,471.947 8.826,462.208 18.548,452.381C21.124,449.776 23.707,447.165 26.272,444.528C38.449,432.006 50.154,418.95 58.271,403.486C73.461,374.554 71.163,338.094 52.454,311.099C44.885,300.173 35.12,291.068 25.156,282.353C23.283,280.715 21.404,279.092 19.531,277.473C11.381,270.431 3.329,263.474 -3.778,255.709C-12.42,246.259 -19.32,234.479 -22.339,222.489C-25.352,210.52 -24.477,198.473 -17.8,188.213C-10.076,176.342 7.136,170.148 27.707,169.322C48.139,168.502 71.187,173.026 89.682,181.79L91.763,182.776L92.599,180.628C103.781,151.87 121.027,126.284 147.055,108.753C173.067,91.233 208.057,81.618 254.995,85.157C299.786,88.537 348.915,137.909 341.812,208.027L345.819,209.292C360.216,183.473 378.611,162.957 405.884,148.815C433.201,134.65 469.604,126.785 520.174,126.614C617.798,126.302 679.011,191.004 695.134,225.94L695.711,227.187L695.733,227.187C721.037,283.514 703.785,349.43 676.249,405.843C673.414,411.652 670.514,417.255 667.679,422.727C662.754,432.234 658.037,441.344 654.241,450.447C648.2,464.924 644.322,479.719 645.236,496.967M629.109,762.082C632.069,754.598 637.278,747.567 643.517,740.855C649.768,734.134 657.158,727.634 664.577,721.25C665.654,720.326 666.727,719.403 667.8,718.488C674.164,713.027 680.45,707.641 686.064,702.189C692.622,695.823 698.15,689.478 701.743,683.012C715.63,657.999 718.46,627.668 709.43,600.743C706.767,592.801 701.653,584.6 695.31,576.14C690.523,569.756 685.125,563.333 679.649,556.816C677.865,554.696 676.077,552.568 674.297,550.427C667.089,541.752 660.083,532.929 654.762,524.059C649.449,515.198 645.718,506.13 645.236,496.967M629.109,762.082L631.099,762.877M645.236,496.967L647.377,496.854" style="fill:none;fill-rule:nonzero;stroke:rgb(255,0,252);stroke-width:1.13px;"/>
        </g>
    </g>
</svg>
