<svg width="223" height="41" viewBox="0 0 223 41" fill="none" xmlns="http://www.w3.org/2000/svg">
<path d="M19.3399 32.2097L29.2199 0.679688H38.0899L25.1399 39.7497H13.0799L0.129883 0.679688H9.38988L19.3199 32.2097H19.3399Z" fill="white"/>
<path d="M39.6001 20.2096C39.6001 6.97957 46.4601 0.0595703 59.3601 0.0595703C72.2601 0.0595703 79.1201 6.97957 79.1201 20.2096C79.1201 33.4396 72.2501 40.3596 59.3601 40.3596C46.4701 40.3596 39.6001 33.4996 39.6001 20.2096ZM69.9601 20.2096C69.9601 11.3396 66.5001 7.20957 59.3601 7.20957C52.2201 7.20957 48.8101 11.3396 48.8101 20.2096C48.8101 29.0796 52.2101 33.2096 59.3601 33.2096C66.5101 33.2096 69.9601 29.0796 69.9601 20.2096Z" fill="white"/>
<path d="M86.9297 0.679688H95.8597V32.3797H115.51V39.7497H86.9397V0.679688H86.9297Z" fill="white"/>
<path d="M124.82 7.87969H111.98V0.679688H146.58V7.87969H133.74V39.7497H124.81V7.87969H124.82Z" fill="white"/>
<path d="M170.97 31.5997H154.11L151.32 39.7497H142.78L156.62 0.679688H169.07L182.91 39.7497H173.76L170.97 31.5997ZM168.52 24.3997L162.6 6.98969L156.63 24.3997H168.52Z" fill="white"/>
<path d="M188.27 0.679924H210.76C218.07 0.679924 222.48 5.19992 222.48 12.7299C222.48 17.2499 220.69 20.5999 217.51 22.4399L222.59 39.7399H213.32L209.19 25.1699H197.19V39.7399H188.26V0.669922L188.27 0.679924ZM197.2 7.53992V17.9799H209.14C211.82 17.9799 213.33 16.1899 213.33 12.7299C213.33 9.26992 211.82 7.53992 209.03 7.53992H197.2Z" fill="white"/>
</svg>
